<?xml version="1.0" standalone="no"?>
<!DOCTYPE svg PUBLIC "-//W3C//DTD SVG 20010904//EN"
 "http://www.w3.org/TR/2001/REC-SVG-20010904/DTD/svg10.dtd">
<svg version="1.0" xmlns="http://www.w3.org/2000/svg"
 width="300.000000pt" height="300.000000pt" viewBox="0 0 300.000000 300.000000"
 preserveAspectRatio="xMidYMid meet">
<metadata>
Created by potrace 1.10, written by Peter Selinger 2001-2011
</metadata>
<g transform="translate(0.000000,300.000000) scale(0.100000,-0.100000)"
fill="#000000" stroke="none">
<path d="M1410 2994 c-364 -29 -678 -163 -927 -398 -223 -210 -364 -451 -439
-746 -36 -143 -46 -443 -20 -602 33 -197 122 -419 240 -596 211 -317 567 -552
953 -629 124 -24 452 -24 576 0 519 104 953 478 1126 971 65 186 75 248 75
501 0 215 -1 237 -26 342 -66 280 -198 514 -408 723 -274 274 -603 417 -995
433 -60 2 -130 3 -155 1z m337 -39 c132 -23 226 -51 343 -103 184 -81 327
-177 460 -311 197 -198 330 -440 397 -721 30 -129 42 -381 24 -512 -45 -319
-181 -602 -396 -827 -283 -295 -668 -461 -1070 -461 -721 0 -1334 520 -1457
1235 -17 101 -19 146 -15 290 6 186 20 263 73 423 119 361 388 673 720 840
195 98 328 136 584 166 60 7 245 -4 337 -19z"/>
<path d="M777 2359 c-47 -28 -47 -28 -47 -695 l-1 -626 26 -34 26 -34 290 0
289 0 0 -110 c0 -67 -4 -110 -10 -110 -5 0 -10 -6 -10 -13 0 -31 -35 -47 -104
-47 -93 0 -106 -9 -106 -70 0 -39 4 -52 24 -68 23 -17 47 -19 349 -21 211 -2
332 1 345 8 25 14 47 94 32 121 -12 23 -31 28 -124 33 -43 2 -71 8 -74 15 -2
7 -11 19 -19 28 -11 11 -17 45 -21 125 l-5 109 287 0 c187 0 294 4 308 11 47
25 48 37 48 693 0 399 -4 617 -10 621 -5 3 -10 13 -10 22 0 9 -10 24 -22 34
-20 18 -52 19 -732 19 -464 -1 -717 -4 -729 -11z m1444 -50 l29 -31 -2 -222
-3 -221 -2 202 -3 201 -36 31 -35 31 -675 -2 -676 -3 -24 -28 -23 -27 -1 -569
0 -569 26 -31 26 -31 681 0 682 0 25 27 c25 26 25 29 30 232 l6 206 2 -211 c2
-216 -4 -267 -37 -282 -9 -5 -135 -9 -281 -11 -146 -1 -272 -4 -281 -7 -29 -8
-42 -59 -37 -147 8 -142 46 -186 169 -195 73 -5 76 -8 63 -60 l-6 -22 -329 0
c-290 0 -329 2 -337 16 -13 23 -2 64 17 65 114 7 125 9 148 30 43 42 53 75 53
185 0 96 -2 105 -22 118 -18 12 -79 15 -295 18 -245 3 -274 5 -290 21 -17 17
-18 58 -21 630 -1 337 0 622 3 635 12 51 18 51 748 52 l679 0 29 -31z m-31
-641 l0 -588 -685 0 -685 0 0 588 0 587 685 0 685 0 0 -587z"/>
<path d="M1090 1895 l0 -45 60 0 c47 0 60 -3 60 -15 0 -8 7 -15 15 -15 8 0 15
-9 15 -20 0 -13 7 -20 20 -20 16 0 20 7 20 35 0 28 -4 35 -20 35 -11 0 -20 7
-20 15 0 12 -13 15 -55 15 -42 0 -55 3 -55 15 0 12 13 15 55 15 42 0 55 -3 55
-15 0 -8 9 -15 20 -15 11 0 20 -7 20 -15 0 -13 25 -15 165 -15 140 0 165 -2
165 -15 0 -12 13 -15 60 -15 60 0 60 0 60 30 0 24 4 30 21 30 18 0 21 -5 17
-30 -4 -24 -1 -30 14 -30 10 0 18 7 18 15 0 11 11 15 41 15 39 0 40 -1 37 -32
l-3 -33 -93 0 -92 0 0 -62 c0 -56 2 -63 20 -63 11 0 20 -7 20 -15 0 -8 9 -15
20 -15 11 0 20 -7 20 -15 0 -10 11 -15 35 -15 24 0 35 5 35 15 0 10 -11 15
-35 15 -24 0 -35 5 -35 15 0 8 -9 15 -20 15 -17 0 -20 7 -20 45 l0 45 89 0 89
0 4 65 3 65 -57 0 c-45 0 -58 3 -58 15 0 10 -11 15 -35 15 -24 0 -35 5 -35 15
0 12 -13 15 -60 15 -60 0 -60 0 -60 -30 l0 -30 -145 0 c-122 0 -145 2 -145 15
0 8 -9 15 -20 15 -11 0 -20 7 -20 15 0 12 -17 15 -95 15 l-95 0 0 -45z m600
-15 c0 -23 -4 -30 -20 -30 -16 0 -20 7 -20 30 0 23 4 30 20 30 16 0 20 -7 20
-30z"/>
<path d="M1210 1755 c0 -28 -4 -35 -20 -35 -16 0 -20 -7 -20 -30 0 -23 -4 -30
-20 -30 -17 0 -20 -7 -20 -50 l0 -50 40 0 c29 0 40 4 40 15 0 8 -9 15 -20 15
-16 0 -20 7 -20 35 0 28 4 35 20 35 16 0 20 -7 20 -30 0 -25 4 -30 24 -30 45
0 86 -13 86 -26 0 -8 9 -14 20 -14 12 0 20 7 20 16 0 9 -9 18 -20 21 -11 3
-20 12 -20 19 0 8 -9 14 -20 14 -11 0 -20 7 -20 15 0 8 -9 15 -20 15 -18 0
-20 7 -20 59 0 43 -4 60 -15 65 -12 4 -15 -3 -15 -29z"/>
<path d="M1357 1783 c-14 -13 -6 -33 13 -33 11 0 20 -6 20 -14 0 -7 3 -28 6
-45 6 -28 4 -31 -20 -31 -16 0 -26 -5 -26 -15 0 -9 9 -15 25 -15 19 0 25 -5
23 -17 -2 -15 3 -17 27 -14 35 4 45 9 45 22 0 5 -10 9 -23 9 -14 0 -24 6 -24
15 0 9 10 15 23 15 17 0 22 4 18 15 -4 10 0 15 15 15 12 0 21 -6 21 -15 0 -8
9 -15 20 -15 11 0 20 7 20 15 0 8 9 15 20 15 11 0 20 -7 20 -15 0 -8 -9 -15
-20 -15 -16 0 -20 -7 -20 -35 0 -28 4 -35 20 -35 16 0 20 7 20 35 0 24 5 35
15 35 8 0 15 -7 15 -15 0 -8 9 -15 20 -15 17 0 20 -7 20 -50 0 -43 -3 -50 -20
-50 -16 0 -20 7 -20 36 0 45 -24 42 -28 -4 -3 -30 -6 -32 -43 -32 -38 0 -39 1
-39 35 0 38 -19 48 -27 15 -5 -17 -14 -20 -59 -20 -42 0 -54 -3 -54 -15 0 -13
-28 -15 -225 -10 -222 6 -225 6 -225 -14 0 -21 1 -21 590 -21 l590 0 0 21 c0
20 -4 21 -107 18 l-108 -4 0 29 c0 35 -24 47 -32 17 -4 -16 -13 -21 -39 -21
-24 0 -34 -5 -34 -15 0 -11 -11 -15 -40 -15 -53 0 -56 27 -3 32 52 4 56 28 4
28 -34 0 -41 3 -41 20 0 13 -7 20 -20 20 -11 0 -20 7 -20 15 0 8 -9 15 -20 15
-11 0 -20 7 -20 15 0 8 -7 15 -15 15 -8 0 -15 7 -15 15 0 12 -15 15 -75 15
-60 0 -75 3 -75 15 0 8 -6 15 -14 15 -7 0 -16 9 -19 20 -5 19 -27 27 -40 13z"/>
<path d="M1173 763 c26 -2 67 -2 90 0 23 2 2 3 -48 3 -49 0 -68 -1 -42 -3z"/>
</g>
</svg>
